<svg width="48" height="48" viewBox="0 0 48 48" fill="none" xmlns="http://www.w3.org/2000/svg">
<g clip-path="url(#clip0_29_166)">
<path d="M32.0813 7.43853C34.56 7.43853 36.7979 8.45272 38.3744 10.081C40.3356 9.70147 42.1844 9.00997 43.8457 8.05222C43.2029 10.0038 41.8357 11.641 40.0575 12.6767C41.7975 12.472 43.4632 12.025 45.0089 11.3567C43.8502 13.0322 42.3915 14.5075 40.707 15.6865C40.7227 16.0442 40.7317 16.4057 40.7317 16.7657C40.7317 27.8154 32.0595 40.5601 16.2015 40.5601C11.334 40.5601 6.80025 39.1712 2.9873 36.7997C3.66942 36.879 4.35558 36.9185 5.0423 36.9181C9.08105 36.9181 12.8003 35.5824 15.7515 33.3369C11.9768 33.2724 8.79075 30.8521 7.698 27.5319C8.23319 27.6321 8.77651 27.6826 9.321 27.6826C10.1048 27.6826 10.8683 27.5814 11.5898 27.3894C7.64625 26.6236 4.674 23.2434 4.674 19.1895V19.0823C5.83725 19.7093 7.1655 20.0858 8.58075 20.1293C6.26625 18.6278 4.7445 16.0718 4.7445 13.17C4.7445 11.6363 5.17055 10.1993 5.9123 8.96853C10.1633 14.025 16.5158 17.355 23.682 17.7053C23.5343 17.0947 23.4578 16.4498 23.4578 15.801C23.4578 11.1818 27.318 7.43853 32.0813 7.43853ZM32.0811 4.43872C26.1906 4.43872 21.3105 8.74227 20.559 14.3028C15.7395 13.3345 11.3565 10.783 8.20721 7.03977C7.92568 6.70487 7.5743 6.43561 7.17771 6.25086C6.78112 6.06612 6.34892 5.97037 5.91141 5.97031C5.83284 5.97033 5.7543 5.97334 5.67596 5.97931C5.20043 6.0174 4.7408 6.16813 4.33508 6.41905C3.92935 6.66997 3.58918 7.01387 3.34271 7.42231C2.29681 9.15772 1.74421 11.1456 1.74441 13.1718C1.74441 14.5241 1.98736 15.8411 2.44791 17.0726C1.95741 17.6178 1.67466 18.3311 1.67466 19.0841V19.1913C1.67466 22.1299 2.83641 24.8568 4.76541 26.9006C4.65441 27.4151 4.67916 27.9536 4.84866 28.4696C5.51396 30.4938 6.72521 32.2383 8.29571 33.5672C7.24116 33.802 6.15296 33.9205 5.04216 33.9205C4.45491 33.9205 3.88341 33.8883 3.34266 33.8222C3.22266 33.8072 3.10416 33.802 2.98491 33.802C1.72491 33.802 0.581161 34.5962 0.156662 35.8075C-0.309088 37.135 0.207708 38.6065 1.40166 39.3497C5.83271 42.1068 10.9507 43.5625 16.2007 43.5625C33.2647 43.5625 43.5292 30.2042 43.7287 17.1557C45.1289 15.9973 46.3659 14.6546 47.4059 13.1642C47.8008 12.6456 48.0143 12.0116 48.0134 11.3597C48.0134 10.339 47.5027 9.43672 46.725 8.89442C47.0617 7.74017 46.6777 6.49067 45.7402 5.72717C45.1927 5.28167 44.5214 5.05517 43.8464 5.05517C43.3203 5.05468 42.8034 5.19309 42.3479 5.45642C41.3564 6.02797 40.2959 6.48022 39.1792 6.80577C37.1586 5.28552 34.6536 4.43877 32.0811 4.43872Z" fill="black"/>
</g>
<defs>
<clipPath id="clip0_29_166">
<rect width="48" height="48" fill="white"/>
</clipPath>
</defs>
</svg>
