<svg width="50" height="50" viewBox="0 0 50 50" fill="none" xmlns="http://www.w3.org/2000/svg">
<path d="M27.8313 16.0856C27.8313 13.123 29.2686 13.123 30.7058 13.123H32.4306C32.7185 13.127 33.0043 13.0715 33.2711 12.9597C33.5379 12.848 33.7803 12.6823 33.9839 12.4724C34.1876 12.2625 34.3484 12.0127 34.4568 11.7377C34.5652 11.4627 34.6191 11.1682 34.6152 10.8714V8.08649C34.6152 7.78829 34.5578 7.49306 34.4462 7.21793C34.3346 6.9428 34.1711 6.69326 33.9652 6.48379C33.7593 6.27431 33.515 6.10908 33.2467 5.99769C32.9783 5.88629 32.6911 5.83095 32.4018 5.83487L28.32 5.77562C27.1314 5.72824 25.9471 5.94723 24.8487 6.41747C23.7502 6.88771 22.7639 7.598 21.9577 8.49932C21.1515 9.40065 20.5447 10.4715 20.1791 11.6381C19.8135 12.8046 19.6978 14.039 19.8401 15.2561V19.5519H17.5693C16.9898 19.5519 16.4342 19.7892 16.0245 20.2114C15.6148 20.6337 15.3846 21.2064 15.3846 21.8036V24.5885C15.3846 25.1856 15.6148 25.7583 16.0245 26.1806C16.4342 26.6028 16.9898 26.8401 17.5693 26.8401H19.8401V42.7495C19.8401 43.1424 19.9916 43.5192 20.2611 43.797C20.5306 44.0748 20.8962 44.2308 21.2774 44.2308H26.4803C26.8463 44.2082 27.1901 44.0421 27.4413 43.7667C27.6924 43.4914 27.832 43.1274 27.8313 42.7495V26.8401H30.3609C30.9403 26.8401 31.496 26.6028 31.9057 26.1806C32.3154 25.7583 32.5455 25.1856 32.5455 24.5885V21.8036C32.5455 21.2064 32.3154 20.6337 31.9057 20.2114C31.496 19.7892 30.9403 19.5519 30.3609 19.5519H27.8313V16.0856Z" stroke="black" stroke-width="3" stroke-linecap="round" stroke-linejoin="round"/>
</svg>
