<svg width="46" height="45" viewBox="0 0 46 45" fill="none" xmlns="http://www.w3.org/2000/svg">
<g clip-path="url(#clip0_29_162)">
<path d="M22.9551 0.175781C29.1543 0.175781 29.918 0.219727 32.3438 0.307617C34.7246 0.395508 36.3867 0.791016 37.8691 1.3623C39.3965 1.93359 40.6543 2.68066 41.9121 3.91113C43.1699 5.1416 43.9336 6.37207 44.5176 7.86621C45.1016 9.31641 45.5059 10.9424 45.5957 13.2715C45.6855 15.6445 45.7305 16.3916 45.7305 22.4561C45.7305 28.5205 45.6855 29.2676 45.5957 31.6406C45.5059 33.9697 45.1016 35.5957 44.5176 37.0459C43.9336 38.54 43.1699 39.7705 41.9121 41.001C40.6543 42.2314 39.3965 42.9785 37.8691 43.5498C36.3867 44.1211 34.7246 44.5166 32.3438 44.6045C29.918 44.6924 29.1543 44.7363 22.9551 44.7363C16.7559 44.7363 15.9922 44.6924 13.5664 44.6045C11.1855 44.5166 9.52344 44.1211 8.04102 43.5498C6.51367 42.9785 5.25586 42.2314 3.99805 41.001C2.74023 39.7705 1.97656 38.54 1.39258 37.0459C0.808594 35.5957 0.404297 33.9697 0.314453 31.6406C0.224609 29.2676 0.179688 28.5205 0.179688 22.4561C0.179688 16.3916 0.224609 15.6445 0.314453 13.2715C0.404297 10.9424 0.808594 9.31641 1.39258 7.86621C1.97656 6.37207 2.74023 5.1416 3.99805 3.91113C5.25586 2.68066 6.51367 1.93359 8.04102 1.3623C9.52344 0.791016 11.1855 0.395508 13.5664 0.307617C15.9922 0.219727 16.7559 0.175781 22.9551 0.175781ZM22.9551 3.07617C16.4863 3.07617 15.7227 3.12012 13.207 3.20801C10.8711 3.2959 9.56836 3.73535 8.71484 4.04297C6.51367 4.92188 5.03125 6.37207 4.13281 8.52539C3.81836 9.36035 3.36914 10.6348 3.2793 12.9199C3.18945 15.3809 3.14453 16.1279 3.14453 22.4561C3.14453 28.7842 3.18945 29.5312 3.2793 31.9922C3.36914 34.2773 3.81836 35.5518 4.13281 36.3867C5.03125 38.54 6.51367 39.9902 8.71484 40.8691C9.56836 41.1768 10.8711 41.6162 13.207 41.7041C15.7227 41.792 16.4863 41.8359 22.9551 41.8359C29.4238 41.8359 30.1875 41.792 32.7031 41.7041C35.0391 41.6162 36.3418 41.1768 37.1953 40.8691C39.3965 39.9902 40.8789 38.54 41.7773 36.3867C42.0918 35.5518 42.541 34.2773 42.6309 31.9922C42.7207 29.5312 42.7656 28.7842 42.7656 22.4561C42.7656 16.1279 42.7207 15.3809 42.6309 12.9199C42.541 10.6348 42.0918 9.36035 41.7773 8.52539C40.8789 6.37207 39.3965 4.92188 37.1953 4.04297C36.3418 3.73535 35.0391 3.2959 32.7031 3.20801C30.1875 3.12012 29.4238 3.07617 22.9551 3.07617ZM22.9551 31.377C27.9863 31.377 32.0742 27.3779 32.0742 22.4561C32.0742 17.5342 27.9863 13.5352 22.9551 13.5352C17.9238 13.5352 13.8359 17.5342 13.8359 22.4561C13.8359 27.3779 17.9238 31.377 22.9551 31.377ZM22.9551 11.0303C29.4238 11.0303 34.6348 16.1279 34.6348 22.4561C34.6348 28.7842 29.4238 33.8818 22.9551 33.8818C16.4863 33.8818 11.2754 28.7842 11.2754 22.4561C11.2754 16.1279 16.4863 11.0303 22.9551 11.0303ZM37.8691 10.5908C37.8691 12.085 36.6113 13.2275 35.084 13.2275C33.5566 13.2275 32.3887 12.085 32.3887 10.5908C32.3887 9.09668 33.5566 7.86621 35.084 7.86621C36.6113 7.86621 37.8691 9.09668 37.8691 10.5908Z" fill="black"/>
</g>
<defs>
<clipPath id="clip0_29_162">
<rect width="46" height="45" fill="white"/>
</clipPath>
</defs>
</svg>
