<svg width="824" height="271" viewBox="0 0 824 271" fill="none" xmlns="http://www.w3.org/2000/svg">
<path d="M481.755 27.464H509.915C510.768 27.6347 511.238 27.9333 511.323 28.36C511.238 28.872 510.854 29.2133 510.171 29.384C507.184 30.3227 506.758 33.608 508.891 39.24C508.976 39.5813 509.147 40.0933 509.403 40.776L518.491 60.488L526.427 39.752C529.072 32.84 528.39 29.384 524.379 29.384C523.782 29.2133 523.44 28.872 523.355 28.36C523.526 27.848 523.867 27.5493 524.379 27.464H540.251C540.848 27.6347 541.19 27.9333 541.275 28.36C541.104 28.872 540.763 29.2133 540.251 29.384C536.07 29.4693 532.827 31.4747 530.523 35.4C529.67 36.936 528.859 38.7707 528.091 40.904L514.267 77H505.819L489.819 40.648C486.662 34.4187 484.358 30.792 482.907 29.768C482.395 29.512 481.968 29.384 481.627 29.384C481.03 29.128 480.688 28.7867 480.603 28.36C480.688 27.848 481.072 27.5493 481.755 27.464ZM556.229 0.199997C559.813 0.199997 562.672 1.69333 564.805 4.68C566 6.472 566.597 8.43466 566.597 10.568C566.597 14.5787 564.89 17.608 561.477 19.656C559.77 20.5093 558.021 20.9787 556.229 21.064C552.986 21.064 550.256 19.656 548.037 16.84C546.586 14.9627 545.861 12.872 545.861 10.568C545.861 6.64266 547.568 3.656 550.981 1.60799C552.688 0.669329 554.437 0.199997 556.229 0.199997ZM565.061 27.72C565.658 27.208 566.128 27.2507 566.469 27.848C566.554 28.104 566.597 28.3173 566.597 28.488V63.56C566.597 69.6187 568.09 73.2453 571.077 74.44C571.76 74.696 572.485 74.9093 573.253 75.08C573.85 75.2507 574.192 75.5493 574.277 75.976C574.106 76.5733 573.808 76.9147 573.381 77H542.149C541.552 76.8293 541.21 76.488 541.125 75.976C541.296 75.464 541.637 75.1653 542.149 75.08C545.562 74.6533 547.61 72.8613 548.293 69.704C548.634 68.168 548.805 66.12 548.805 63.56V51.272C548.805 43.848 547.013 39.5813 543.429 38.472C543.088 38.3867 542.789 38.3013 542.533 38.216C541.85 37.96 541.509 37.6187 541.509 37.192C541.594 36.68 541.936 36.3813 542.533 36.296C550.469 36.04 557.765 33.3093 564.421 28.104C564.677 27.9333 564.89 27.8053 565.061 27.72ZM596.045 27.464C611.49 26.8667 620.237 32.8827 622.285 45.512L624.205 62.024C625.314 68.68 627.362 72.3067 630.349 72.904C630.605 72.9893 630.989 72.9893 631.501 72.904C631.928 72.904 632.226 72.904 632.397 72.904C633.08 72.904 633.378 73.2453 633.293 73.928C633.208 74.2693 633.037 74.5253 632.781 74.696C629.112 76.8293 625.058 77.896 620.621 77.896C614.306 77.8107 610.04 75.6773 607.821 71.496C607.821 71.8373 606.968 72.6053 605.261 73.8C601.506 76.4453 596.984 77.768 591.693 77.768C583.33 77.768 577.912 75.336 575.437 70.472C574.669 68.7653 574.285 66.9307 574.285 64.968C574.285 58.3973 577.57 54.1307 584.141 52.168C584.824 51.9973 588.493 51.3573 595.149 50.248C597.453 49.8213 599.245 49.3093 600.525 48.712C603.085 47.6027 604.237 45.5547 603.981 42.568C603.981 42.1413 603.938 41.7573 603.853 41.416C603.085 35.1013 600.866 31.2613 597.197 29.896C596.344 29.5547 595.49 29.384 594.637 29.384C591.138 29.384 589.304 30.8347 589.133 33.736C589.133 33.8213 589.133 33.9067 589.133 33.992C589.048 35.1013 589.858 36.3813 591.565 37.832C593.442 39.4533 594.21 41.2453 593.869 43.208C593.442 45.8533 591.65 47.5173 588.493 48.2C585.165 48.8827 582.52 48.0293 580.557 45.64C579.96 44.7867 579.533 43.8907 579.277 42.952C577.997 38.088 579.49 34.12 583.757 31.048C586.914 28.9147 591.01 27.72 596.045 27.464ZM604.621 47.944C603.768 49.1387 602.658 50.0773 601.293 50.76C597.624 53.064 595.533 54.4293 595.021 54.856C592.461 57.16 591.181 59.9333 591.181 63.176C591.181 67.9547 593.144 71.112 597.069 72.648C600.226 73.8427 602.872 73.5013 605.005 71.624C606.456 70.4293 607.053 68.8507 606.797 66.888L604.621 47.944ZM671.688 17.224C674.76 14.408 678.088 13 681.672 13C685.683 13.0853 688.371 14.792 689.736 18.12C689.821 18.2907 689.864 18.4187 689.864 18.504C691.059 21.9173 690.333 24.776 687.688 27.08C686.408 28.1893 685 28.8293 683.464 29C681.16 29 679.709 28.2747 679.112 26.824C679.027 26.3973 679.027 25.3307 679.112 23.624C679.027 22.856 678.856 22.216 678.6 21.704C676.893 19.5707 674.632 19.6133 671.816 21.832C670.024 23.2827 668.915 25.032 668.488 27.08C675.059 28.872 679.752 32.584 682.568 38.216C683.933 40.9467 684.616 43.7627 684.616 46.664C684.616 53.064 681.843 58.3547 676.296 62.536C671.944 65.608 667.037 67.144 661.576 67.144C656.968 67.144 652.872 66.12 649.288 64.072C646.813 64.84 645.704 66.0347 645.96 67.656C646.557 69.96 649.373 71.496 654.408 72.264C656.029 72.52 657.779 72.648 659.656 72.648C666.397 72.648 671.688 72.9467 675.528 73.544C679.453 74.056 682.696 75.2933 685.256 77.256C687.816 79.2187 689.096 81.992 689.096 85.576C689.096 93.3413 684.659 98.9307 675.784 102.344C671.005 104.221 665.587 105.16 659.528 105.16C645.619 105.16 637.853 101.96 636.232 95.56C635.976 94.792 635.848 93.9813 635.848 93.128C636.019 89.288 638.536 86.6427 643.4 85.192C639.901 84.2533 637.725 81.864 636.872 78.024C635.848 73.5867 637.128 69.704 640.712 66.376C642.504 64.7547 644.68 63.56 647.24 62.792C641.437 58.6107 638.536 53.2347 638.536 46.664C638.536 40.264 641.309 35.016 646.856 30.92C651.208 27.7627 656.115 26.184 661.576 26.184C663.197 26.184 664.861 26.3547 666.568 26.696C667.251 24.648 667.848 23.112 668.36 22.088C669.299 20.2107 670.408 18.5893 671.688 17.224ZM657.992 28.616C656.456 28.7867 655.304 29.896 654.536 31.944C653.341 35.4427 653.725 40.8613 655.688 48.2C658.077 57.0747 660.936 62.3653 664.264 64.072C665.203 64.4987 666.056 64.6267 666.824 64.456C669.981 63.6027 670.92 59.208 669.64 51.272C669.299 49.224 668.872 47.0907 668.36 44.872C666.312 37.5333 663.923 32.584 661.192 30.024C659.997 29.0853 658.931 28.616 657.992 28.616ZM650.312 86.856C647.496 89.3307 646.515 92.3173 647.368 95.816C648.307 99.7413 651.251 102.131 656.2 102.984C657.395 103.155 658.547 103.24 659.656 103.24C665.459 103.24 670.152 101.405 673.736 97.736C676.552 94.8347 677.149 92.36 675.528 90.312C674.248 88.9467 672.157 88.136 669.256 87.88C662.259 87.624 655.944 87.2827 650.312 86.856ZM722.313 17.224C725.385 14.408 728.713 13 732.297 13C736.308 13.0853 738.996 14.792 740.361 18.12C740.446 18.2907 740.489 18.4187 740.489 18.504C741.684 21.9173 740.958 24.776 738.313 27.08C737.033 28.1893 735.625 28.8293 734.089 29C731.785 29 730.334 28.2747 729.737 26.824C729.652 26.3973 729.652 25.3307 729.737 23.624C729.652 22.856 729.481 22.216 729.225 21.704C727.518 19.5707 725.257 19.6133 722.441 21.832C720.649 23.2827 719.54 25.032 719.113 27.08C725.684 28.872 730.377 32.584 733.193 38.216C734.558 40.9467 735.241 43.7627 735.241 46.664C735.241 53.064 732.468 58.3547 726.921 62.536C722.569 65.608 717.662 67.144 712.201 67.144C707.593 67.144 703.497 66.12 699.913 64.072C697.438 64.84 696.329 66.0347 696.585 67.656C697.182 69.96 699.998 71.496 705.033 72.264C706.654 72.52 708.404 72.648 710.281 72.648C717.022 72.648 722.313 72.9467 726.153 73.544C730.078 74.056 733.321 75.2933 735.881 77.256C738.441 79.2187 739.721 81.992 739.721 85.576C739.721 93.3413 735.284 98.9307 726.409 102.344C721.63 104.221 716.212 105.16 710.153 105.16C696.244 105.16 688.478 101.96 686.857 95.56C686.601 94.792 686.473 93.9813 686.473 93.128C686.644 89.288 689.161 86.6427 694.025 85.192C690.526 84.2533 688.35 81.864 687.497 78.024C686.473 73.5867 687.753 69.704 691.337 66.376C693.129 64.7547 695.305 63.56 697.865 62.792C692.062 58.6107 689.161 53.2347 689.161 46.664C689.161 40.264 691.934 35.016 697.481 30.92C701.833 27.7627 706.74 26.184 712.201 26.184C713.822 26.184 715.486 26.3547 717.193 26.696C717.876 24.648 718.473 23.112 718.985 22.088C719.924 20.2107 721.033 18.5893 722.313 17.224ZM708.617 28.616C707.081 28.7867 705.929 29.896 705.161 31.944C703.966 35.4427 704.35 40.8613 706.313 48.2C708.702 57.0747 711.561 62.3653 714.889 64.072C715.828 64.4987 716.681 64.6267 717.449 64.456C720.606 63.6027 721.545 59.208 720.265 51.272C719.924 49.224 719.497 47.0907 718.985 44.872C716.937 37.5333 714.548 32.584 711.817 30.024C710.622 29.0853 709.556 28.616 708.617 28.616ZM700.937 86.856C698.121 89.3307 697.14 92.3173 697.993 95.816C698.932 99.7413 701.876 102.131 706.825 102.984C708.02 103.155 709.172 103.24 710.281 103.24C716.084 103.24 720.777 101.405 724.361 97.736C727.177 94.8347 727.774 92.36 726.153 90.312C724.873 88.9467 722.782 88.136 719.881 87.88C712.884 87.624 706.569 87.2827 700.937 86.856ZM755.854 0.199997C759.438 0.199997 762.297 1.69333 764.43 4.68C765.625 6.472 766.222 8.43466 766.222 10.568C766.222 14.5787 764.515 17.608 761.102 19.656C759.395 20.5093 757.646 20.9787 755.854 21.064C752.611 21.064 749.881 19.656 747.662 16.84C746.211 14.9627 745.486 12.872 745.486 10.568C745.486 6.64266 747.193 3.656 750.606 1.60799C752.313 0.669329 754.062 0.199997 755.854 0.199997ZM764.686 27.72C765.283 27.208 765.753 27.2507 766.094 27.848C766.179 28.104 766.222 28.3173 766.222 28.488V63.56C766.222 69.6187 767.715 73.2453 770.702 74.44C771.385 74.696 772.11 74.9093 772.878 75.08C773.475 75.2507 773.817 75.5493 773.902 75.976C773.731 76.5733 773.433 76.9147 773.006 77H741.774C741.177 76.8293 740.835 76.488 740.75 75.976C740.921 75.464 741.262 75.1653 741.774 75.08C745.187 74.6533 747.235 72.8613 747.918 69.704C748.259 68.168 748.43 66.12 748.43 63.56V51.272C748.43 43.848 746.638 39.5813 743.054 38.472C742.713 38.3867 742.414 38.3013 742.158 38.216C741.475 37.96 741.134 37.6187 741.134 37.192C741.219 36.68 741.561 36.3813 742.158 36.296C750.094 36.04 757.39 33.3093 764.046 28.104C764.302 27.9333 764.515 27.8053 764.686 27.72ZM797.876 27.464C805.727 27.464 812.169 30.4507 817.204 36.424C821.129 41.2027 823.092 46.6213 823.092 52.68C823.092 60.5307 820.105 66.9733 814.132 72.008C809.439 75.848 804.02 77.768 797.876 77.768C790.111 77.768 783.711 74.7813 778.676 68.808C774.836 64.1147 772.873 58.7387 772.788 52.68C772.788 44.8293 775.817 38.3867 781.876 33.352C786.569 29.512 791.903 27.5493 797.876 27.464ZM792.884 30.152C792.372 30.152 792.031 30.152 791.86 30.152C788.105 31.176 786.911 36.5093 788.276 46.152C788.703 48.968 789.3 51.8693 790.068 54.856C792.969 65.352 796.425 71.88 800.436 74.44C801.716 75.1227 802.911 75.336 804.02 75.08C807.689 74.056 808.927 69.064 807.732 60.104C807.305 57.032 806.665 53.832 805.812 50.504C802.996 40.264 799.625 33.7787 795.7 31.048C794.761 30.3653 793.823 30.0667 792.884 30.152ZM25.326 110.336C25.4967 110.336 25.6673 110.379 25.838 110.464C26.094 110.72 26.222 111.019 26.222 111.36V116.096C29.3793 112.427 33.6033 110.592 38.894 110.592C51.2673 110.677 58.4353 116.651 60.398 128.512L62.446 146.56C63.214 152.619 65.134 156.245 68.206 157.44C68.974 157.696 69.742 157.909 70.51 158.08C71.1927 158.251 71.5767 158.549 71.662 158.976C71.5767 159.573 71.2353 159.915 70.638 160H39.662C38.9793 159.829 38.5953 159.488 38.51 158.976C38.6807 158.464 39.0647 158.165 39.662 158.08C42.734 157.653 44.4407 155.989 44.782 153.088C45.038 151.552 44.9953 149.376 44.654 146.56L42.606 126.72C41.4967 118.101 38.5953 113.835 33.902 113.92C33.4753 114.005 33.134 114.048 32.878 114.048C29.4647 114.475 27.4167 117.205 26.734 122.24C26.3927 124.544 26.222 127.829 26.222 132.096V146.56C26.222 152.619 27.7153 156.245 30.702 157.44C31.3847 157.696 32.11 157.909 32.878 158.08C33.4753 158.251 33.8167 158.549 33.902 158.976C33.7313 159.573 33.4327 159.915 33.006 160H1.774C1.17667 159.829 0.835333 159.488 0.75 158.976C0.920667 158.464 1.262 158.165 1.774 158.08C5.18733 157.653 7.23533 155.861 7.918 152.704C8.25933 151.168 8.43 149.12 8.43 146.56V134.272C8.43 128.469 7.61933 124.757 5.998 123.136C4.974 122.197 3.694 121.515 2.158 121.088C1.47533 120.747 1.134 120.405 1.134 120.064C1.21933 119.552 1.56067 119.211 2.158 119.04C10.094 118.869 17.39 116.181 24.046 110.976C24.302 110.805 24.5153 110.677 24.686 110.592C24.942 110.421 25.1553 110.336 25.326 110.336ZM95.016 110.464C101.928 110.464 107.475 112.512 111.656 116.608C112.253 117.205 112.765 117.76 113.192 118.272C115.837 121.685 116.605 125.184 115.496 128.768C114.216 132.267 111.315 134.315 106.792 134.912C104.147 135.253 100.264 135.723 95.144 136.32H95.016H94.888H94.76H94.632L94.504 136.448H94.376H94.248H94.12H93.992H93.864H93.736H93.608H93.48L93.352 136.576H93.224H93.096H92.968H92.84H92.712H92.584H92.456L92.328 136.704H92.2H92.072H91.944H91.816H91.688H91.56H91.432H91.304L91.176 136.832H91.048H90.92H90.792H90.664H90.536H90.408H90.28L90.152 136.96H90.024H89.896H89.768H89.64H89.512H89.384H89.256L89.128 137.088H89H88.872H88.744H88.616H88.488H88.36H88.104C89.5547 143.915 93.096 148.523 98.728 150.912C103.848 153.045 108.499 152.704 112.68 149.888C114.387 148.693 115.752 147.243 116.776 145.536C117.629 144.341 118.269 143.787 118.696 143.872C119.037 144.213 119.208 144.597 119.208 145.024C116.221 155.52 108.243 160.768 95.272 160.768C87.4213 160.768 80.936 158.08 75.816 152.704C73.256 149.888 71.464 146.688 70.44 143.104C69.928 141.653 69.5867 140.032 69.416 138.24C68.4773 127.573 71.464 119.808 78.376 114.944C82.728 111.957 88.2747 110.464 95.016 110.464ZM94.888 112.384C91.4747 112.384 89.0853 115.243 87.72 120.96C86.5253 125.909 86.5253 130.688 87.72 135.296C97.6187 134.101 102.483 130.389 102.312 124.16C102.312 123.733 102.312 123.349 102.312 123.008C101.715 116.864 99.8373 113.408 96.68 112.64C96.0827 112.469 95.4853 112.384 94.888 112.384ZM141.689 83.456C142.03 83.2 142.414 83.1573 142.841 83.328C143.097 83.584 143.225 83.8827 143.225 84.224V146.56C143.225 152.619 144.718 156.245 147.705 157.44C148.388 157.696 149.113 157.909 149.881 158.08C150.478 158.251 150.82 158.549 150.905 158.976C150.734 159.573 150.436 159.915 150.009 160H118.777C118.18 159.829 117.838 159.488 117.753 158.976C117.924 158.464 118.265 158.165 118.777 158.08C122.19 157.653 124.238 155.861 124.921 152.704C125.262 151.168 125.433 149.12 125.433 146.56V107.008C125.433 99.584 123.641 95.3173 120.057 94.208C119.716 94.1227 119.417 94.0373 119.161 93.952C118.478 93.696 118.094 93.3547 118.009 92.928C118.18 92.416 118.564 92.1173 119.161 92.032C127.097 91.776 134.393 89.0453 141.049 83.84C141.305 83.6693 141.518 83.5413 141.689 83.456ZM178.689 83.456C179.03 83.2 179.414 83.1573 179.841 83.328C180.097 83.584 180.225 83.8827 180.225 84.224V146.56C180.225 152.619 181.718 156.245 184.705 157.44C185.388 157.696 186.113 157.909 186.881 158.08C187.478 158.251 187.82 158.549 187.905 158.976C187.734 159.573 187.436 159.915 187.009 160H155.777C155.18 159.829 154.838 159.488 154.753 158.976C154.924 158.464 155.265 158.165 155.777 158.08C159.19 157.653 161.238 155.861 161.921 152.704C162.262 151.168 162.433 149.12 162.433 146.56V107.008C162.433 99.584 160.641 95.3173 157.057 94.208C156.716 94.1227 156.417 94.0373 156.161 93.952C155.478 93.696 155.094 93.3547 155.009 92.928C155.18 92.416 155.564 92.1173 156.161 92.032C164.097 91.776 171.393 89.0453 178.049 83.84C178.305 83.6693 178.518 83.5413 178.689 83.456ZM196.805 78.336C200.048 78.336 202.352 79.7867 203.717 82.688C204.229 83.712 204.485 84.8213 204.485 86.016C204.485 90.0267 202.608 96.0853 198.853 104.192C198 105.984 197.53 106.965 197.445 107.136C197.104 107.989 196.634 108.117 196.037 107.52C195.952 107.349 195.909 107.221 195.909 107.136C192.666 99.8827 190.789 95.36 190.277 93.568C189.509 90.8373 189.125 88.32 189.125 86.016C189.125 82.7733 190.533 80.4693 193.349 79.104C194.458 78.592 195.61 78.336 196.805 78.336ZM224.729 83.2C228.313 83.2 231.172 84.6933 233.305 87.68C234.5 89.472 235.097 91.4347 235.097 93.568C235.097 97.5787 233.39 100.608 229.977 102.656C228.27 103.509 226.521 103.979 224.729 104.064C221.486 104.064 218.756 102.656 216.537 99.84C215.086 97.9627 214.361 95.872 214.361 93.568C214.361 89.6427 216.068 86.656 219.481 84.608C221.188 83.6693 222.937 83.2 224.729 83.2ZM233.561 110.72C234.158 110.208 234.628 110.251 234.969 110.848C235.054 111.104 235.097 111.317 235.097 111.488V146.56C235.097 152.619 236.59 156.245 239.577 157.44C240.26 157.696 240.985 157.909 241.753 158.08C242.35 158.251 242.692 158.549 242.777 158.976C242.606 159.573 242.308 159.915 241.881 160H210.649C210.052 159.829 209.71 159.488 209.625 158.976C209.796 158.464 210.137 158.165 210.649 158.08C214.062 157.653 216.11 155.861 216.793 152.704C217.134 151.168 217.305 149.12 217.305 146.56V134.272C217.305 126.848 215.513 122.581 211.929 121.472C211.588 121.387 211.289 121.301 211.033 121.216C210.35 120.96 210.009 120.619 210.009 120.192C210.094 119.68 210.436 119.381 211.033 119.296C218.969 119.04 226.265 116.309 232.921 111.104C233.177 110.933 233.39 110.805 233.561 110.72ZM270.689 83.456C271.03 83.2 271.414 83.1573 271.841 83.328C272.097 83.584 272.225 83.8827 272.225 84.224V146.56C272.225 152.619 273.718 156.245 276.705 157.44C277.388 157.696 278.113 157.909 278.881 158.08C279.478 158.251 279.82 158.549 279.905 158.976C279.734 159.573 279.436 159.915 279.009 160H247.777C247.18 159.829 246.838 159.488 246.753 158.976C246.924 158.464 247.265 158.165 247.777 158.08C251.19 157.653 253.238 155.861 253.921 152.704C254.262 151.168 254.433 149.12 254.433 146.56V107.008C254.433 99.584 252.641 95.3173 249.057 94.208C248.716 94.1227 248.417 94.0373 248.161 93.952C247.478 93.696 247.094 93.3547 247.009 92.928C247.18 92.416 247.564 92.1173 248.161 92.032C256.097 91.776 263.393 89.0453 270.049 83.84C270.305 83.6693 270.518 83.5413 270.689 83.456ZM307.689 83.456C308.03 83.2 308.414 83.1573 308.841 83.328C309.097 83.584 309.225 83.8827 309.225 84.224V146.56C309.225 152.619 310.718 156.245 313.705 157.44C314.388 157.696 315.113 157.909 315.881 158.08C316.478 158.251 316.82 158.549 316.905 158.976C316.734 159.573 316.436 159.915 316.009 160H284.777C284.18 159.829 283.838 159.488 283.753 158.976C283.924 158.464 284.265 158.165 284.777 158.08C288.19 157.653 290.238 155.861 290.921 152.704C291.262 151.168 291.433 149.12 291.433 146.56V107.008C291.433 99.584 289.641 95.3173 286.057 94.208C285.716 94.1227 285.417 94.0373 285.161 93.952C284.478 93.696 284.094 93.3547 284.009 92.928C284.18 92.416 284.564 92.1173 285.161 92.032C293.097 91.776 300.393 89.0453 307.049 83.84C307.305 83.6693 307.518 83.5413 307.689 83.456ZM337.132 110.464C337.644 110.635 337.985 110.976 338.156 111.488V142.72C338.583 152.619 341.313 157.781 346.348 158.208C349.761 158.123 352.321 155.349 354.028 149.888C354.881 147.072 355.308 144.213 355.308 141.312V134.272C355.308 126.848 353.559 122.581 350.06 121.472C349.719 121.387 349.42 121.301 349.164 121.216C348.481 120.96 348.097 120.619 348.012 120.192C348.183 119.68 348.524 119.381 349.036 119.296C357.057 119.04 364.396 116.309 371.052 111.104C371.308 110.933 371.479 110.805 371.564 110.72C371.82 110.549 372.033 110.464 372.204 110.464C372.801 110.635 373.143 110.976 373.228 111.488V144.128C373.228 147.285 373.484 149.845 373.996 151.808C374.764 154.197 375.959 155.563 377.58 155.904C377.836 155.989 378.263 155.989 378.86 155.904C379.201 155.904 379.457 155.904 379.628 155.904C380.311 155.904 380.609 156.245 380.524 156.928C380.439 157.269 380.311 157.525 380.14 157.696C376.385 159.744 372.673 160.768 369.004 160.768C362.945 160.683 358.764 158.763 356.46 155.008C353.388 158.933 348.183 160.853 340.844 160.768C331.969 160.683 325.868 157.696 322.54 151.808C321.089 149.163 320.321 146.133 320.236 142.72V134.272C320.236 126.848 318.487 122.581 314.988 121.472C314.647 121.387 314.348 121.301 314.092 121.216C313.409 120.96 313.025 120.619 312.94 120.192C313.111 119.68 313.452 119.381 313.964 119.296C321.985 119.04 329.324 116.309 335.98 111.104C336.151 110.933 336.321 110.805 336.492 110.72C336.748 110.549 336.961 110.464 337.132 110.464ZM428.919 78.464C434.807 78.464 439.33 79.8293 442.487 82.56C445.047 84.864 446.37 88.5333 446.455 93.568V113.152H455.287C455.799 113.323 456.14 113.664 456.311 114.176C456.14 114.688 455.799 114.987 455.287 115.072H446.455V142.848C446.455 149.419 447.82 152.704 450.551 152.704C452.514 152.619 454.178 151.339 455.543 148.864C455.714 148.523 455.842 148.267 455.927 148.096C456.183 147.755 456.482 147.541 456.823 147.456C457.42 147.456 457.719 147.797 457.719 148.48C457.719 148.651 457.676 148.779 457.591 148.864C455.116 154.325 451.532 157.995 446.839 159.872C445.132 160.469 443.468 160.768 441.847 160.768C437.41 160.768 434.082 159.403 431.863 156.672C429.644 153.856 428.535 149.248 428.535 142.848V123.136C428.62 118.784 428.279 116.267 427.511 115.584C426.743 115.157 424.994 114.944 422.263 114.944C421.666 114.603 421.324 114.261 421.239 113.92C421.41 113.408 421.751 113.109 422.263 113.024C426.103 112.171 430.711 109.44 436.087 104.832C439.671 101.675 442.146 98.7307 443.511 96C444.706 93.3547 444.578 90.368 443.127 87.04C442.444 85.6747 441.719 84.6933 440.951 84.096C437.708 81.6213 433.698 80.384 428.919 80.384C422.007 80.384 416.716 83.0293 413.047 88.32C412.45 89.2587 411.938 90.1973 411.511 91.136C408.695 97.28 409.378 103.083 413.559 108.544C413.815 108.885 414.028 109.141 414.199 109.312C415.223 110.592 415.778 111.616 415.863 112.384L417.015 125.44C416.93 126.037 416.674 126.379 416.247 126.464C415.735 126.379 415.351 126.08 415.095 125.568C413.815 120.021 411.724 116.267 408.823 114.304C406.775 113.024 404.3 112.384 401.399 112.384C397.986 112.384 395.938 113.792 395.255 116.608C394.914 118.315 395.17 120.021 396.023 121.728C396.962 123.691 400.375 125.909 406.263 128.384C413.175 131.456 417.698 133.973 419.831 135.936C422.306 138.325 423.586 140.971 423.671 143.872C423.671 150.357 420.3 155.093 413.559 158.08C409.548 159.872 404.855 160.768 399.479 160.768C391.714 160.768 386.124 158.507 382.711 153.984C380.834 151.253 380.279 148.395 381.047 145.408C381.9 142.08 383.991 140.331 387.319 140.16C387.575 140.075 387.746 140.032 387.831 140.032C391.159 140.032 393.506 141.312 394.871 143.872C395.383 144.981 395.554 146.091 395.383 147.2C395.212 148.565 394.274 149.931 392.567 151.296C391.543 152.32 390.988 153.301 390.903 154.24C390.988 156.032 392.311 157.397 394.871 158.336C396.066 158.677 397.26 158.848 398.455 158.848C403.49 158.848 406.604 156.928 407.799 153.088C408.055 152.235 408.183 151.424 408.183 150.656C408.183 147.499 405.836 144.683 401.143 142.208C400.204 141.781 398.711 141.141 396.663 140.288C390.434 137.472 386.338 134.869 384.375 132.48C382.754 130.432 381.815 128.128 381.559 125.568C380.876 119.083 383.82 114.603 390.391 112.128C393.463 111.019 397.132 110.464 401.399 110.464C403.874 110.464 406.476 110.677 409.207 111.104C410.828 111.36 411.596 110.891 411.511 109.696C411.426 109.099 411.212 108.501 410.871 107.904C407.458 102.101 407.074 96.2133 409.719 90.24C412.279 84.608 416.631 80.9387 422.775 79.232C424.823 78.72 426.871 78.464 428.919 78.464ZM494.522 109.824C499.301 109.824 502.714 111.659 504.762 115.328C506.469 118.741 506.255 122.283 504.122 125.952C502.33 128.939 499.599 130.219 495.93 129.792C495.418 129.792 494.906 129.707 494.394 129.536C491.493 128.597 489.999 126.848 489.914 124.288C489.914 122.923 490.767 121.643 492.474 120.448C493.669 119.509 494.309 118.571 494.394 117.632C494.309 115.157 493.242 113.621 491.194 113.024C490.426 112.853 489.658 112.811 488.89 112.896C485.135 114.005 482.917 117.419 482.234 123.136C481.978 125.355 481.85 128.171 481.85 131.584V146.56C481.85 152.619 483.343 156.245 486.33 157.44C487.013 157.696 487.738 157.909 488.506 158.08C489.103 158.251 489.445 158.549 489.53 158.976C489.359 159.573 489.018 159.915 488.506 160H457.402C456.805 159.829 456.463 159.488 456.378 158.976C456.549 158.464 456.89 158.165 457.402 158.08C460.73 157.653 462.778 155.861 463.546 152.704C463.887 151.168 464.058 149.12 464.058 146.56V134.272C464.058 126.848 462.266 122.581 458.682 121.472C458.341 121.387 458.042 121.301 457.786 121.216C457.103 120.96 456.719 120.619 456.634 120.192C456.805 119.68 457.189 119.381 457.786 119.296C465.722 119.04 473.018 116.309 479.674 111.104C479.93 110.933 480.101 110.805 480.186 110.72C480.783 110.208 481.295 110.251 481.722 110.848C481.807 111.104 481.85 111.317 481.85 111.488V115.328C484.495 112.853 487.141 111.232 489.786 110.464C491.493 110.037 493.071 109.824 494.522 109.824ZM528.67 110.464C544.115 109.867 552.862 115.883 554.91 128.512L556.83 145.024C557.939 151.68 559.987 155.307 562.974 155.904C563.23 155.989 563.614 155.989 564.126 155.904C564.553 155.904 564.851 155.904 565.022 155.904C565.705 155.904 566.003 156.245 565.918 156.928C565.833 157.269 565.662 157.525 565.406 157.696C561.737 159.829 557.683 160.896 553.246 160.896C546.931 160.811 542.665 158.677 540.446 154.496C540.446 154.837 539.593 155.605 537.886 156.8C534.131 159.445 529.609 160.768 524.318 160.768C515.955 160.768 510.537 158.336 508.062 153.472C507.294 151.765 506.91 149.931 506.91 147.968C506.91 141.397 510.195 137.131 516.766 135.168C517.449 134.997 521.118 134.357 527.774 133.248C530.078 132.821 531.87 132.309 533.15 131.712C535.71 130.603 536.862 128.555 536.606 125.568C536.606 125.141 536.563 124.757 536.478 124.416C535.71 118.101 533.491 114.261 529.822 112.896C528.969 112.555 528.115 112.384 527.262 112.384C523.763 112.384 521.929 113.835 521.758 116.736C521.758 116.821 521.758 116.907 521.758 116.992C521.673 118.101 522.483 119.381 524.19 120.832C526.067 122.453 526.835 124.245 526.494 126.208C526.067 128.853 524.275 130.517 521.118 131.2C517.79 131.883 515.145 131.029 513.182 128.64C512.585 127.787 512.158 126.891 511.902 125.952C510.622 121.088 512.115 117.12 516.382 114.048C519.539 111.915 523.635 110.72 528.67 110.464ZM537.246 130.944C536.393 132.139 535.283 133.077 533.918 133.76C530.249 136.064 528.158 137.429 527.646 137.856C525.086 140.16 523.806 142.933 523.806 146.176C523.806 150.955 525.769 154.112 529.694 155.648C532.851 156.843 535.497 156.501 537.63 154.624C539.081 153.429 539.678 151.851 539.422 149.888L537.246 130.944ZM574.775 110.464H615.351C615.948 110.464 616.247 110.763 616.247 111.36C616.247 111.616 616.204 111.787 616.119 111.872L589.495 158.08H606.007C609.42 158.08 611.895 156.075 613.431 152.064C613.772 151.125 614.156 149.973 614.583 148.608C614.754 148.096 615.052 147.797 615.479 147.712C616.076 147.797 616.418 148.139 616.503 148.736L615.479 160H569.527H569.399C568.716 159.915 568.418 159.531 568.503 158.848C568.588 158.677 568.631 158.592 568.631 158.592L595.255 112.384H584.759C579.98 112.469 576.908 115.669 575.543 121.984C575.372 122.496 575.031 122.795 574.519 122.88C574.007 122.709 573.751 122.325 573.751 121.728L574.775 110.464ZM633.854 83.2C637.438 83.2 640.297 84.6933 642.43 87.68C643.625 89.472 644.222 91.4347 644.222 93.568C644.222 97.5787 642.515 100.608 639.102 102.656C637.395 103.509 635.646 103.979 633.854 104.064C630.611 104.064 627.881 102.656 625.662 99.84C624.211 97.9627 623.486 95.872 623.486 93.568C623.486 89.6427 625.193 86.656 628.606 84.608C630.313 83.6693 632.062 83.2 633.854 83.2ZM642.686 110.72C643.283 110.208 643.753 110.251 644.094 110.848C644.179 111.104 644.222 111.317 644.222 111.488V146.56C644.222 152.619 645.715 156.245 648.702 157.44C649.385 157.696 650.11 157.909 650.878 158.08C651.475 158.251 651.817 158.549 651.902 158.976C651.731 159.573 651.433 159.915 651.006 160H619.774C619.177 159.829 618.835 159.488 618.75 158.976C618.921 158.464 619.262 158.165 619.774 158.08C623.187 157.653 625.235 155.861 625.918 152.704C626.259 151.168 626.43 149.12 626.43 146.56V134.272C626.43 126.848 624.638 122.581 621.054 121.472C620.713 121.387 620.414 121.301 620.158 121.216C619.475 120.96 619.134 120.619 619.134 120.192C619.219 119.68 619.561 119.381 620.158 119.296C628.094 119.04 635.39 116.309 642.046 111.104C642.302 110.933 642.515 110.805 642.686 110.72ZM675.876 110.464C683.727 110.464 690.169 113.451 695.204 119.424C699.129 124.203 701.092 129.621 701.092 135.68C701.092 143.531 698.105 149.973 692.132 155.008C687.439 158.848 682.02 160.768 675.876 160.768C668.111 160.768 661.711 157.781 656.676 151.808C652.836 147.115 650.873 141.739 650.788 135.68C650.788 127.829 653.817 121.387 659.876 116.352C664.569 112.512 669.903 110.549 675.876 110.464ZM670.884 113.152C670.372 113.152 670.031 113.152 669.86 113.152C666.105 114.176 664.911 119.509 666.276 129.152C666.703 131.968 667.3 134.869 668.068 137.856C670.969 148.352 674.425 154.88 678.436 157.44C679.716 158.123 680.911 158.336 682.02 158.08C685.689 157.056 686.927 152.064 685.732 143.104C685.305 140.032 684.665 136.832 683.812 133.504C680.996 123.264 677.625 116.779 673.7 114.048C672.761 113.365 671.823 113.067 670.884 113.152ZM725.576 110.336C725.747 110.336 725.917 110.379 726.088 110.464C726.344 110.72 726.472 111.019 726.472 111.36V116.096C729.629 112.427 733.853 110.592 739.144 110.592C751.517 110.677 758.685 116.651 760.648 128.512L762.696 146.56C763.464 152.619 765.384 156.245 768.456 157.44C769.224 157.696 769.992 157.909 770.76 158.08C771.443 158.251 771.827 158.549 771.912 158.976C771.827 159.573 771.485 159.915 770.888 160H739.912C739.229 159.829 738.845 159.488 738.76 158.976C738.931 158.464 739.315 158.165 739.912 158.08C742.984 157.653 744.691 155.989 745.032 153.088C745.288 151.552 745.245 149.376 744.904 146.56L742.856 126.72C741.747 118.101 738.845 113.835 734.152 113.92C733.725 114.005 733.384 114.048 733.128 114.048C729.715 114.475 727.667 117.205 726.984 122.24C726.643 124.544 726.472 127.829 726.472 132.096V146.56C726.472 152.619 727.965 156.245 730.952 157.44C731.635 157.696 732.36 157.909 733.128 158.08C733.725 158.251 734.067 158.549 734.152 158.976C733.981 159.573 733.683 159.915 733.256 160H702.024C701.427 159.829 701.085 159.488 701 158.976C701.171 158.464 701.512 158.165 702.024 158.08C705.437 157.653 707.485 155.861 708.168 152.704C708.509 151.168 708.68 149.12 708.68 146.56V134.272C708.68 128.469 707.869 124.757 706.248 123.136C705.224 122.197 703.944 121.515 702.408 121.088C701.725 120.747 701.384 120.405 701.384 120.064C701.469 119.552 701.811 119.211 702.408 119.04C710.344 118.869 717.64 116.181 724.296 110.976C724.552 110.805 724.765 110.677 724.936 110.592C725.192 110.421 725.405 110.336 725.576 110.336ZM795.266 110.464C802.178 110.464 807.725 112.512 811.906 116.608C812.503 117.205 813.015 117.76 813.442 118.272C816.087 121.685 816.855 125.184 815.746 128.768C814.466 132.267 811.565 134.315 807.042 134.912C804.397 135.253 800.514 135.723 795.394 136.32H795.266H795.138H795.01H794.882L794.754 136.448H794.626H794.498H794.37H794.242H794.114H793.986H793.858H793.73L793.602 136.576H793.474H793.346H793.218H793.09H792.962H792.834H792.706L792.578 136.704H792.45H792.322H792.194H792.066H791.938H791.81H791.682H791.554L791.426 136.832H791.298H791.17H791.042H790.914H790.786H790.658H790.53L790.402 136.96H790.274H790.146H790.018H789.89H789.762H789.634H789.506L789.378 137.088H789.25H789.122H788.994H788.866H788.738H788.61H788.354C789.805 143.915 793.346 148.523 798.978 150.912C804.098 153.045 808.749 152.704 812.93 149.888C814.637 148.693 816.002 147.243 817.026 145.536C817.879 144.341 818.519 143.787 818.946 143.872C819.287 144.213 819.458 144.597 819.458 145.024C816.471 155.52 808.493 160.768 795.522 160.768C787.671 160.768 781.186 158.08 776.066 152.704C773.506 149.888 771.714 146.688 770.69 143.104C770.178 141.653 769.837 140.032 769.666 138.24C768.727 127.573 771.714 119.808 778.626 114.944C782.978 111.957 788.525 110.464 795.266 110.464ZM795.138 112.384C791.725 112.384 789.335 115.243 787.97 120.96C786.775 125.909 786.775 130.688 787.97 135.296C797.869 134.101 802.733 130.389 802.562 124.16C802.562 123.733 802.562 123.349 802.562 123.008C801.965 116.864 800.087 113.408 796.93 112.64C796.333 112.469 795.735 112.384 795.138 112.384ZM81.552 193.464C89.744 193.464 95.4613 195.853 98.704 200.632C101.179 204.557 101.307 208.824 99.088 213.432C97.552 216.419 94.9493 217.827 91.28 217.656C87.8667 217.485 85.6053 215.992 84.496 213.176C84.4107 212.92 84.3253 212.707 84.24 212.536C83.5573 210.232 84.3253 208.184 86.544 206.392C88.336 204.941 89.36 203.789 89.616 202.936C89.7867 202.509 89.872 202.125 89.872 201.784C89.7867 199.053 88.464 197.133 85.904 196.024C84.88 195.597 83.8133 195.384 82.704 195.384C79.0347 195.384 76.176 197.773 74.128 202.552C72.336 207.075 71.8667 212.237 72.72 218.04C73.8293 225.208 76.944 230.413 82.064 233.656C84.5387 235.192 87.0987 235.96 89.744 235.96C94.6933 235.96 98.576 233.784 101.392 229.432C101.819 228.749 102.16 228.109 102.416 227.512C102.672 227 103.056 226.787 103.568 226.872C104.08 227.043 104.336 227.427 104.336 228.024C102.715 234.083 98.576 238.563 91.92 241.464C88.2507 243 84.368 243.811 80.272 243.896C72.4213 243.811 65.936 241.08 60.816 235.704C57.0613 231.608 54.928 226.787 54.416 221.24C53.5627 211.853 56.2933 204.557 62.608 199.352C67.3867 195.427 73.7013 193.464 81.552 193.464ZM132.001 193.464C139.852 193.464 146.294 196.451 151.329 202.424C155.254 207.203 157.217 212.621 157.217 218.68C157.217 226.531 154.23 232.973 148.257 238.008C143.564 241.848 138.145 243.768 132.001 243.768C124.236 243.768 117.836 240.781 112.801 234.808C108.961 230.115 106.998 224.739 106.913 218.68C106.913 210.829 109.942 204.387 116.001 199.352C120.694 195.512 126.028 193.549 132.001 193.464ZM127.009 196.152C126.497 196.152 126.156 196.152 125.985 196.152C122.23 197.176 121.036 202.509 122.401 212.152C122.828 214.968 123.425 217.869 124.193 220.856C127.094 231.352 130.55 237.88 134.561 240.44C135.841 241.123 137.036 241.336 138.145 241.08C141.814 240.056 143.052 235.064 141.857 226.104C141.43 223.032 140.79 219.832 139.937 216.504C137.121 206.264 133.75 199.779 129.825 197.048C128.886 196.365 127.948 196.067 127.009 196.152ZM181.701 193.336C181.872 193.336 182.042 193.379 182.213 193.464C182.469 193.72 182.597 194.019 182.597 194.36V199.096C185.754 195.427 189.978 193.592 195.269 193.592C207.642 193.677 214.81 199.651 216.773 211.512L218.821 229.56C219.589 235.619 221.509 239.245 224.581 240.44C225.349 240.696 226.117 240.909 226.885 241.08C227.568 241.251 227.952 241.549 228.037 241.976C227.952 242.573 227.61 242.915 227.013 243H196.037C195.354 242.829 194.97 242.488 194.885 241.976C195.056 241.464 195.44 241.165 196.037 241.08C199.109 240.653 200.816 238.989 201.157 236.088C201.413 234.552 201.37 232.376 201.029 229.56L198.981 209.72C197.872 201.101 194.97 196.835 190.277 196.92C189.85 197.005 189.509 197.048 189.253 197.048C185.84 197.475 183.792 200.205 183.109 205.24C182.768 207.544 182.597 210.829 182.597 215.096V229.56C182.597 235.619 184.09 239.245 187.077 240.44C187.76 240.696 188.485 240.909 189.253 241.08C189.85 241.251 190.192 241.549 190.277 241.976C190.106 242.573 189.808 242.915 189.381 243H158.149C157.552 242.829 157.21 242.488 157.125 241.976C157.296 241.464 157.637 241.165 158.149 241.08C161.562 240.653 163.61 238.861 164.293 235.704C164.634 234.168 164.805 232.12 164.805 229.56V217.272C164.805 211.469 163.994 207.757 162.373 206.136C161.349 205.197 160.069 204.515 158.533 204.088C157.85 203.747 157.509 203.405 157.509 203.064C157.594 202.552 157.936 202.211 158.533 202.04C166.469 201.869 173.765 199.181 180.421 193.976C180.677 193.805 180.89 193.677 181.061 193.592C181.317 193.421 181.53 193.336 181.701 193.336ZM245.024 176.184C245.28 175.757 245.621 175.544 246.048 175.544C246.475 175.715 246.731 176.056 246.816 176.568V196.152H255.648C256.16 196.323 256.501 196.664 256.672 197.176C256.501 197.688 256.16 197.987 255.648 198.072H246.816V225.848C246.816 232.419 248.181 235.704 250.912 235.704C252.875 235.619 254.539 234.339 255.904 231.864C256.075 231.523 256.203 231.267 256.288 231.096C256.544 230.755 256.843 230.541 257.184 230.456C257.867 230.456 258.165 230.797 258.08 231.48C258.08 231.651 258.037 231.779 257.952 231.864C255.477 237.325 251.893 240.995 247.2 242.872C245.579 243.469 243.915 243.768 242.208 243.768C235.125 243.768 230.901 240.184 229.536 233.016C229.109 230.883 228.896 228.493 228.896 225.848L229.024 206.136C229.024 201.784 228.64 199.267 227.872 198.584C227.189 198.157 225.483 197.944 222.752 197.944C222.069 197.603 221.685 197.261 221.6 196.92C221.771 196.408 222.112 196.109 222.624 196.024C226.72 195.171 231.413 192.355 236.704 187.576C241.141 183.565 243.915 179.768 245.024 176.184ZM283.891 193.464C290.803 193.464 296.35 195.512 300.531 199.608C301.128 200.205 301.64 200.76 302.067 201.272C304.712 204.685 305.48 208.184 304.371 211.768C303.091 215.267 300.19 217.315 295.667 217.912C293.022 218.253 289.139 218.723 284.019 219.32H283.891H283.763H283.635H283.507L283.379 219.448H283.251H283.123H282.995H282.867H282.739H282.611H282.483H282.355L282.227 219.576H282.099H281.971H281.843H281.715H281.587H281.459H281.331L281.203 219.704H281.075H280.947H280.819H280.691H280.563H280.435H280.307H280.179L280.051 219.832H279.923H279.795H279.667H279.539H279.411H279.283H279.155L279.027 219.96H278.899H278.771H278.643H278.515H278.387H278.259H278.131L278.003 220.088H277.875H277.747H277.619H277.491H277.363H277.235H276.979C278.43 226.915 281.971 231.523 287.603 233.912C292.723 236.045 297.374 235.704 301.555 232.888C303.262 231.693 304.627 230.243 305.651 228.536C306.504 227.341 307.144 226.787 307.571 226.872C307.912 227.213 308.083 227.597 308.083 228.024C305.096 238.52 297.118 243.768 284.147 243.768C276.296 243.768 269.811 241.08 264.691 235.704C262.131 232.888 260.339 229.688 259.315 226.104C258.803 224.653 258.462 223.032 258.291 221.24C257.352 210.573 260.339 202.808 267.251 197.944C271.603 194.957 277.15 193.464 283.891 193.464ZM283.763 195.384C280.35 195.384 277.96 198.243 276.595 203.96C275.4 208.909 275.4 213.688 276.595 218.296C286.494 217.101 291.358 213.389 291.187 207.16C291.187 206.733 291.187 206.349 291.187 206.008C290.59 199.864 288.712 196.408 285.555 195.64C284.958 195.469 284.36 195.384 283.763 195.384ZM332.326 193.336C332.497 193.336 332.667 193.379 332.838 193.464C333.094 193.72 333.222 194.019 333.222 194.36V199.096C336.379 195.427 340.603 193.592 345.894 193.592C355.537 193.677 362.022 197.261 365.35 204.344C368.593 197.603 374.097 194.019 381.862 193.592C394.235 193.677 401.361 199.651 403.238 211.512L405.414 229.56C406.097 235.619 408.017 239.245 411.174 240.44C411.857 240.696 412.582 240.909 413.35 241.08C414.033 241.251 414.417 241.549 414.502 241.976C414.417 242.573 414.075 242.915 413.478 243H382.502C381.819 242.829 381.435 242.488 381.35 241.976C381.521 241.464 381.905 241.165 382.502 241.08C385.574 240.653 387.323 238.989 387.75 236.088C387.921 234.552 387.835 232.376 387.494 229.56L385.446 209.72C384.763 204.173 382.715 200.504 379.302 198.712C377.851 198.029 376.315 197.773 374.694 197.944C369.233 198.883 366.843 204.045 367.526 213.432L369.446 229.56C370.214 235.619 372.134 239.245 375.206 240.44C375.974 240.696 376.742 240.909 377.51 241.08C378.193 241.251 378.577 241.549 378.662 241.976C378.577 242.573 378.235 242.915 377.638 243H346.662C345.979 242.829 345.595 242.488 345.51 241.976C345.681 241.464 346.065 241.165 346.662 241.08C349.734 240.653 351.441 238.989 351.782 236.088C352.038 234.552 351.995 232.376 351.654 229.56L349.606 209.72C348.497 201.101 345.595 196.835 340.902 196.92C340.475 197.005 340.134 197.048 339.878 197.048C336.465 197.475 334.417 200.205 333.734 205.24C333.393 207.544 333.222 210.829 333.222 215.096V229.56C333.222 235.619 334.715 239.245 337.702 240.44C338.385 240.696 339.11 240.909 339.878 241.08C340.475 241.251 340.817 241.549 340.902 241.976C340.731 242.573 340.433 242.915 340.006 243H308.774C308.177 242.829 307.835 242.488 307.75 241.976C307.921 241.464 308.262 241.165 308.774 241.08C312.187 240.653 314.235 238.861 314.918 235.704C315.259 234.168 315.43 232.12 315.43 229.56V217.272C315.43 211.469 314.619 207.757 312.998 206.136C311.974 205.197 310.694 204.515 309.158 204.088C308.475 203.747 308.134 203.405 308.134 203.064C308.219 202.552 308.561 202.211 309.158 202.04C317.094 201.869 324.39 199.181 331.046 193.976C331.302 193.805 331.515 193.677 331.686 193.592C331.942 193.421 332.155 193.336 332.326 193.336ZM434.664 193.72C435.091 193.464 435.475 193.421 435.816 193.592C436.072 193.848 436.243 194.147 436.328 194.488V198.072C439.827 195.341 443.709 193.848 447.976 193.592H449.128C449.299 193.507 449.427 193.464 449.512 193.464C449.597 193.464 449.683 193.464 449.768 193.464C450.024 193.549 450.152 193.592 450.152 193.592C457.235 193.933 462.952 197.176 467.304 203.32C470.205 207.501 471.827 212.152 472.168 217.272C472.68 225.293 470.248 232.035 464.872 237.496C460.861 241.421 456.253 243.555 451.048 243.896C445.501 244.152 440.595 242.531 436.328 239.032V238.904V256.824C436.328 262.883 437.821 266.509 440.808 267.704C441.491 267.96 442.216 268.173 442.984 268.344C443.496 268.515 443.795 268.813 443.88 269.24C443.795 269.837 443.496 270.179 442.984 270.264H411.88C411.197 270.093 410.813 269.752 410.728 269.24C410.899 268.728 411.283 268.429 411.88 268.344C415.208 267.917 417.213 266.125 417.896 262.968C418.237 261.432 418.408 259.384 418.408 256.824V217.272C418.408 209.848 416.659 205.581 413.16 204.472C412.819 204.387 412.477 204.301 412.136 204.216C411.539 203.96 411.197 203.619 411.112 203.192C411.283 202.68 411.624 202.381 412.136 202.296C420.157 202.04 427.496 199.309 434.152 194.104C434.323 193.933 434.493 193.805 434.664 193.72ZM443.752 198.2C442.643 197.688 441.576 197.517 440.552 197.688C439.443 198.029 438.547 198.755 437.864 199.864C436.84 201.656 436.328 204.131 436.328 207.288C436.328 211.64 437.096 216.504 438.632 221.88C441.363 232.12 444.691 238.52 448.616 241.08C449.981 241.848 451.219 242.061 452.328 241.72C456.253 240.696 457.448 235.277 455.912 225.464C455.571 222.989 455.016 220.387 454.248 217.656C451.261 206.819 447.763 200.333 443.752 198.2ZM502.251 193.464C510.102 193.464 516.544 196.451 521.579 202.424C525.504 207.203 527.467 212.621 527.467 218.68C527.467 226.531 524.48 232.973 518.507 238.008C513.814 241.848 508.395 243.768 502.251 243.768C494.486 243.768 488.086 240.781 483.051 234.808C479.211 230.115 477.248 224.739 477.163 218.68C477.163 210.829 480.192 204.387 486.251 199.352C490.944 195.512 496.278 193.549 502.251 193.464ZM497.259 196.152C496.747 196.152 496.406 196.152 496.235 196.152C492.48 197.176 491.286 202.509 492.651 212.152C493.078 214.968 493.675 217.869 494.443 220.856C497.344 231.352 500.8 237.88 504.811 240.44C506.091 241.123 507.286 241.336 508.395 241.08C512.064 240.056 513.302 235.064 512.107 226.104C511.68 223.032 511.04 219.832 510.187 216.504C507.371 206.264 504 199.779 500.075 197.048C499.136 196.365 498.198 196.067 497.259 196.152ZM565.647 192.824C570.426 192.824 573.839 194.659 575.887 198.328C577.594 201.741 577.38 205.283 575.247 208.952C573.455 211.939 570.724 213.219 567.055 212.792C566.543 212.792 566.031 212.707 565.519 212.536C562.618 211.597 561.124 209.848 561.039 207.288C561.039 205.923 561.892 204.643 563.599 203.448C564.794 202.509 565.434 201.571 565.519 200.632C565.434 198.157 564.367 196.621 562.319 196.024C561.551 195.853 560.783 195.811 560.015 195.896C556.26 197.005 554.042 200.419 553.359 206.136C553.103 208.355 552.975 211.171 552.975 214.584V229.56C552.975 235.619 554.468 239.245 557.455 240.44C558.138 240.696 558.863 240.909 559.631 241.08C560.228 241.251 560.57 241.549 560.655 241.976C560.484 242.573 560.143 242.915 559.631 243H528.527C527.93 242.829 527.588 242.488 527.503 241.976C527.674 241.464 528.015 241.165 528.527 241.08C531.855 240.653 533.903 238.861 534.671 235.704C535.012 234.168 535.183 232.12 535.183 229.56V217.272C535.183 209.848 533.391 205.581 529.807 204.472C529.466 204.387 529.167 204.301 528.911 204.216C528.228 203.96 527.844 203.619 527.759 203.192C527.93 202.68 528.314 202.381 528.911 202.296C536.847 202.04 544.143 199.309 550.799 194.104C551.055 193.933 551.226 193.805 551.311 193.72C551.908 193.208 552.42 193.251 552.847 193.848C552.932 194.104 552.975 194.317 552.975 194.488V198.328C555.62 195.853 558.266 194.232 560.911 193.464C562.618 193.037 564.196 192.824 565.647 192.824ZM599.795 193.464C615.24 192.867 623.987 198.883 626.035 211.512L627.955 228.024C629.064 234.68 631.112 238.307 634.099 238.904C634.355 238.989 634.739 238.989 635.251 238.904C635.678 238.904 635.976 238.904 636.147 238.904C636.83 238.904 637.128 239.245 637.043 239.928C636.958 240.269 636.787 240.525 636.531 240.696C632.862 242.829 628.808 243.896 624.371 243.896C618.056 243.811 613.79 241.677 611.571 237.496C611.571 237.837 610.718 238.605 609.011 239.8C605.256 242.445 600.734 243.768 595.443 243.768C587.08 243.768 581.662 241.336 579.187 236.472C578.419 234.765 578.035 232.931 578.035 230.968C578.035 224.397 581.32 220.131 587.891 218.168C588.574 217.997 592.243 217.357 598.899 216.248C601.203 215.821 602.995 215.309 604.275 214.712C606.835 213.603 607.987 211.555 607.731 208.568C607.731 208.141 607.688 207.757 607.603 207.416C606.835 201.101 604.616 197.261 600.947 195.896C600.094 195.555 599.24 195.384 598.387 195.384C594.888 195.384 593.054 196.835 592.883 199.736C592.883 199.821 592.883 199.907 592.883 199.992C592.798 201.101 593.608 202.381 595.315 203.832C597.192 205.453 597.96 207.245 597.619 209.208C597.192 211.853 595.4 213.517 592.243 214.2C588.915 214.883 586.27 214.029 584.307 211.64C583.71 210.787 583.283 209.891 583.027 208.952C581.747 204.088 583.24 200.12 587.507 197.048C590.664 194.915 594.76 193.72 599.795 193.464ZM608.371 213.944C607.518 215.139 606.408 216.077 605.043 216.76C601.374 219.064 599.283 220.429 598.771 220.856C596.211 223.16 594.931 225.933 594.931 229.176C594.931 233.955 596.894 237.112 600.819 238.648C603.976 239.843 606.622 239.501 608.755 237.624C610.206 236.429 610.803 234.851 610.547 232.888L608.371 213.944ZM664.076 193.336C664.247 193.336 664.417 193.379 664.588 193.464C664.844 193.72 664.972 194.019 664.972 194.36V199.096C668.129 195.427 672.353 193.592 677.644 193.592C690.017 193.677 697.185 199.651 699.148 211.512L701.196 229.56C701.964 235.619 703.884 239.245 706.956 240.44C707.724 240.696 708.492 240.909 709.26 241.08C709.943 241.251 710.327 241.549 710.412 241.976C710.327 242.573 709.985 242.915 709.388 243H678.412C677.729 242.829 677.345 242.488 677.26 241.976C677.431 241.464 677.815 241.165 678.412 241.08C681.484 240.653 683.191 238.989 683.532 236.088C683.788 234.552 683.745 232.376 683.404 229.56L681.356 209.72C680.247 201.101 677.345 196.835 672.652 196.92C672.225 197.005 671.884 197.048 671.628 197.048C668.215 197.475 666.167 200.205 665.484 205.24C665.143 207.544 664.972 210.829 664.972 215.096V229.56C664.972 235.619 666.465 239.245 669.452 240.44C670.135 240.696 670.86 240.909 671.628 241.08C672.225 241.251 672.567 241.549 672.652 241.976C672.481 242.573 672.183 242.915 671.756 243H640.524C639.927 242.829 639.585 242.488 639.5 241.976C639.671 241.464 640.012 241.165 640.524 241.08C643.937 240.653 645.985 238.861 646.668 235.704C647.009 234.168 647.18 232.12 647.18 229.56V217.272C647.18 211.469 646.369 207.757 644.748 206.136C643.724 205.197 642.444 204.515 640.908 204.088C640.225 203.747 639.884 203.405 639.884 203.064C639.969 202.552 640.311 202.211 640.908 202.04C648.844 201.869 656.14 199.181 662.796 193.976C663.052 193.805 663.265 193.677 663.436 193.592C663.692 193.421 663.905 193.336 664.076 193.336ZM733.766 193.464C740.678 193.464 746.225 195.512 750.406 199.608C751.003 200.205 751.515 200.76 751.942 201.272C754.587 204.685 755.355 208.184 754.246 211.768C752.966 215.267 750.065 217.315 745.542 217.912C742.897 218.253 739.014 218.723 733.894 219.32H733.766H733.638H733.51H733.382L733.254 219.448H733.126H732.998H732.87H732.742H732.614H732.486H732.358H732.23L732.102 219.576H731.974H731.846H731.718H731.59H731.462H731.334H731.206L731.078 219.704H730.95H730.822H730.694H730.566H730.438H730.31H730.182H730.054L729.926 219.832H729.798H729.67H729.542H729.414H729.286H729.158H729.03L728.902 219.96H728.774H728.646H728.518H728.39H728.262H728.134H728.006L727.878 220.088H727.75H727.622H727.494H727.366H727.238H727.11H726.854C728.305 226.915 731.846 231.523 737.478 233.912C742.598 236.045 747.249 235.704 751.43 232.888C753.137 231.693 754.502 230.243 755.526 228.536C756.379 227.341 757.019 226.787 757.446 226.872C757.787 227.213 757.958 227.597 757.958 228.024C754.971 238.52 746.993 243.768 734.022 243.768C726.171 243.768 719.686 241.08 714.566 235.704C712.006 232.888 710.214 229.688 709.19 226.104C708.678 224.653 708.337 223.032 708.166 221.24C707.227 210.573 710.214 202.808 717.126 197.944C721.478 194.957 727.025 193.464 733.766 193.464ZM733.638 195.384C730.225 195.384 727.835 198.243 726.47 203.96C725.275 208.909 725.275 213.688 726.47 218.296C736.369 217.101 741.233 213.389 741.062 207.16C741.062 206.733 741.062 206.349 741.062 206.008C740.465 199.864 738.587 196.408 735.43 195.64C734.833 195.469 734.235 195.384 733.638 195.384ZM783.295 193.464C798.74 192.867 807.487 198.883 809.535 211.512L811.455 228.024C812.564 234.68 814.612 238.307 817.599 238.904C817.855 238.989 818.239 238.989 818.751 238.904C819.178 238.904 819.476 238.904 819.647 238.904C820.33 238.904 820.628 239.245 820.543 239.928C820.458 240.269 820.287 240.525 820.031 240.696C816.362 242.829 812.308 243.896 807.871 243.896C801.556 243.811 797.29 241.677 795.071 237.496C795.071 237.837 794.218 238.605 792.511 239.8C788.756 242.445 784.234 243.768 778.943 243.768C770.58 243.768 765.162 241.336 762.687 236.472C761.919 234.765 761.535 232.931 761.535 230.968C761.535 224.397 764.82 220.131 771.391 218.168C772.074 217.997 775.743 217.357 782.399 216.248C784.703 215.821 786.495 215.309 787.775 214.712C790.335 213.603 791.487 211.555 791.231 208.568C791.231 208.141 791.188 207.757 791.103 207.416C790.335 201.101 788.116 197.261 784.447 195.896C783.594 195.555 782.74 195.384 781.887 195.384C778.388 195.384 776.554 196.835 776.383 199.736C776.383 199.821 776.383 199.907 776.383 199.992C776.298 201.101 777.108 202.381 778.815 203.832C780.692 205.453 781.46 207.245 781.119 209.208C780.692 211.853 778.9 213.517 775.743 214.2C772.415 214.883 769.77 214.029 767.807 211.64C767.21 210.787 766.783 209.891 766.527 208.952C765.247 204.088 766.74 200.12 771.007 197.048C774.164 194.915 778.26 193.72 783.295 193.464ZM791.871 213.944C791.018 215.139 789.908 216.077 788.543 216.76C784.874 219.064 782.783 220.429 782.271 220.856C779.711 223.16 778.431 225.933 778.431 229.176C778.431 233.955 780.394 237.112 784.319 238.648C787.476 239.843 790.122 239.501 792.255 237.624C793.706 236.429 794.303 234.851 794.047 232.888L791.871 213.944Z" fill="#EB8464"/>
</svg>
